<svg width="142" height="41" viewBox="0 0 142 41" fill="none" xmlns="http://www.w3.org/2000/svg">
<path d="M0.987793 15.0401C0.987793 23.0401 7.38779 29.3601 15.3478 29.3601C21.1478 29.3601 25.2678 26.7601 25.2678 26.7601C25.4278 26.6401 25.5878 26.4401 25.5878 26.1201V15.8801C25.5878 15.4801 25.2678 15.1201 24.8678 15.1201H17.1878C16.7478 15.1201 16.4278 15.4401 16.4278 15.8801V19.0401C16.4278 19.4401 16.7478 19.7601 17.1878 19.7601H20.3878V23.1601C19.5878 23.4801 17.8678 24.1601 15.6278 24.1601C10.5878 24.1601 6.62779 19.9601 6.62779 15.0001C6.62779 10.0001 10.5878 5.7201 15.5878 5.7201C17.7878 5.7201 19.9078 6.5201 21.6278 8.0401C21.9878 8.3601 22.3478 8.3601 22.6678 8.0401L25.1478 5.4401C25.4678 5.1201 25.4278 4.6401 25.1078 4.3201C22.3878 2.0001 18.9478 0.600098 15.3478 0.600098C7.38779 0.600098 0.987793 7.0401 0.987793 15.0401Z" fill="black"/>
<path d="M29.7947 28.2401C29.7947 28.6401 30.1547 29.0001 30.5547 29.0001H33.6347C34.1947 29.0001 34.5547 28.8001 34.5547 28.2401V18.5601C34.8347 18.0001 35.7947 16.9201 37.3947 16.9201C37.8347 16.9201 38.4347 17.1201 38.5547 17.1601C38.8747 17.3201 39.2747 17.1601 39.4747 16.8001L40.9547 14.2001C41.4347 13.2001 39.7547 12.6001 37.8747 12.6001C35.3947 12.6001 33.9147 14.2801 33.3547 15.0801L32.7947 13.5201C32.6747 13.2001 32.4347 13.0001 32.0747 13.0001H30.5547C30.1547 13.0001 29.7947 13.3201 29.7947 13.7601V28.2401Z" fill="black"/>
<path d="M42.0703 20.9601C42.0703 25.5601 45.7503 29.4001 50.2703 29.4001C54.7903 29.4001 58.4703 25.5601 58.4703 20.9601C58.4703 16.4401 54.7903 12.6001 50.2703 12.6001C45.7503 12.6001 42.0703 16.4401 42.0703 20.9601ZM46.4303 20.9601C46.4303 18.7201 48.1103 16.9201 50.2703 16.9201C52.3903 16.9201 54.1103 18.7201 54.1103 20.9601C54.1103 23.2401 52.3903 25.0801 50.2703 25.0801C48.1103 25.0801 46.4303 23.2401 46.4303 20.9601Z" fill="black"/>
<path d="M61.7412 21.5201C61.7412 25.6001 63.5412 29.4001 68.5012 29.4001C71.6612 29.4001 73.1412 27.7201 73.8612 27.0801L74.3412 28.4001C74.4612 28.7201 74.7012 29.0001 75.1012 29.0001H76.5812C76.9812 29.0001 77.3412 28.6401 77.3412 28.2401V13.7601C77.3412 13.3201 76.9812 13.0001 76.5812 13.0001H73.5412C72.9012 13.0001 72.6612 13.1601 72.6612 13.7601V22.0801C72.4212 23.5201 71.1412 25.0801 69.4612 25.0801C67.6212 25.0801 66.5412 23.7601 66.5412 21.6401V13.7601C66.5412 13.3201 66.1812 13.0001 65.7812 13.0001H62.5012C62.1012 13.0001 61.7412 13.3201 61.7412 13.7601V21.5201Z" fill="black"/>
<path d="M87.0584 28.5201C87.6184 28.8401 89.0584 29.4001 90.6184 29.4001C94.9384 29.4001 98.5384 25.7201 98.5384 21.0001C98.5384 16.4001 95.2184 12.6001 90.8184 12.6001C88.2184 12.6001 86.2584 14.0001 85.6584 14.8001L85.1384 13.4801C85.0184 13.1601 84.7384 13.0001 84.4584 13.0001H82.8984C82.4984 13.0001 82.1384 13.3201 82.1384 13.7601V40.2401C82.1384 40.6401 82.4984 41.0001 82.8984 41.0001H86.0984C86.8184 41.0001 87.0584 40.7201 87.0584 40.2401V28.5201ZM86.8584 24.1601V19.3601C87.0984 18.5201 88.0984 16.9201 90.1384 16.9201C92.3384 16.9201 93.8584 18.7601 93.8584 21.0001C93.8584 23.2401 92.2184 25.0801 89.9784 25.0801C87.9784 25.0801 86.8584 24.1601 86.8584 24.1601Z" fill="black"/>
<path d="M104.498 7.3201C106.058 7.3201 107.298 6.0801 107.298 4.5601C107.298 3.0401 106.058 1.8001 104.498 1.8001C102.978 1.8001 101.778 3.0401 101.778 4.5601C101.778 6.0801 102.978 7.3201 104.498 7.3201ZM102.138 28.2401C102.138 28.6401 102.498 29.0001 102.898 29.0001H106.218C106.618 29.0001 106.978 28.6401 106.978 28.2401V13.7601C106.978 13.3201 106.618 13.0001 106.218 13.0001H102.898C102.498 13.0001 102.138 13.3201 102.138 13.7601V28.2401Z" fill="black"/>
<path d="M112.747 28.2401C112.747 28.6401 113.107 29.0001 113.507 29.0001H116.987C117.387 29.0001 117.747 28.6401 117.747 28.2401V17.2001H121.747C122.187 17.2001 122.507 16.8401 122.507 16.4401V13.7601C122.507 13.3201 122.187 13.0001 121.747 13.0001H117.747V8.6801C117.747 6.3601 118.707 5.0401 120.427 5.0401C121.307 5.0401 122.267 5.5201 122.787 5.8401C123.147 6.0401 123.587 5.9601 123.747 5.6401L125.107 3.0801C125.267 2.8001 125.187 2.3601 124.947 2.1601C124.227 1.5201 122.347 0.600098 120.227 0.600098C115.987 0.600098 112.747 3.4001 112.747 8.6801V13.0001H111.387C110.947 13.0001 110.627 13.3201 110.627 13.7601V16.4401C110.627 16.8401 110.947 17.2001 111.387 17.2001H112.747V28.2401Z" fill="black"/>
<path d="M129.977 27.8801L124.297 39.9201C124.017 40.4801 124.377 41.0001 124.977 41.0001H128.417C128.737 41.0001 128.977 40.7601 129.097 40.5201L141.337 14.0401C141.617 13.5201 141.297 13.0001 140.657 13.0001H137.457C136.977 13.0001 136.697 13.0401 136.497 13.4401L132.497 22.4801H132.457L128.417 13.4401C128.297 13.2001 128.097 13.0001 127.737 13.0001H124.137C123.537 13.0001 123.217 13.5201 123.457 14.0401L129.977 27.8801Z" fill="black"/>
</svg>
