<svg id="Layer_1" data-name="Layer 1" xmlns="http://www.w3.org/2000/svg" viewBox="0 0 453.6 122.4"><defs><style>.cls-1{fill:#fff;}.cls-2{stroke:#fff;stroke-width:8px;}.cls-2,.cls-3{stroke-miterlimit:10;}.cls-3{stroke:#000;stroke-width:2px;}</style></defs><path class="cls-1" d="M410.06,40.8l2.19,6.07-6,1.17c-1.58.31-2.39,1.6-1.81,2.87a3.65,3.65,0,0,0,3.91,1.75L416.9,51a2.72,2.72,0,0,0,1.46-.75,1.85,1.85,0,0,0,.52-2l-2.14-5.92,8.38-.55c1.64-.11,2.72-1.26,2.39-2.56h0A3.45,3.45,0,0,0,423.92,37l-11.19.73a2.88,2.88,0,0,0-2,.89A1.85,1.85,0,0,0,410.06,40.8Z"/><path class="cls-1" d="M426.19,68.66l3.62,6.4,5.55-1a3.8,3.8,0,0,1,3.84,2,2,2,0,0,1-1.43,3l-7.89,1.41a3.38,3.38,0,0,1-1.74-.19A3.88,3.88,0,0,1,426,78.59l-3.53-6.24-6.79,2.39a3.72,3.72,0,0,1-4-1.55h0c-.88-1.32-.51-2.79.82-3.26l9.06-3.2a3.23,3.23,0,0,1,2.26.14A3.91,3.91,0,0,1,426.19,68.66Z"/><path class="cls-1" d="M410.3,92,404,93l-2.48-5.84A3.36,3.36,0,0,0,398,85c-1.28.32-1.81,1.83-1.16,3.36l3.52,8.32a4.08,4.08,0,0,0,1.11,1.49,2.92,2.92,0,0,0,2.36.85L410,98l2.25,7.95a3.58,3.58,0,0,0,3.29,2.69h0c1.38-.07,2.14-1.41,1.7-3l-3-10.61a4,4,0,0,0-1.37-2A3.06,3.06,0,0,0,410.3,92Z"/><path class="cls-1" d="M346.56,40.67,326.13,37a10.28,10.28,0,0,0-6.93,1.22,1.18,1.18,0,0,0-.37-.19l-4-.72c-1.73-.31-3.94,3.79-4.92,9.16s-.37,10,1.36,10.29l4,.72a1.28,1.28,0,0,0,.38,0,10.28,10.28,0,0,0,6.1,3.65l2.12.38-2.74,15.1a6.45,6.45,0,1,0,12.7,2.3l2.74-15.09,4.93.9,37.13,26.92,13-61.28Z"/><ellipse class="cls-2" cx="383.41" cy="60.6" rx="30.25" ry="9.8" transform="translate(242.79 422.4) rotate(-77.74)"/><ellipse cx="341.4" cy="48.91" rx="2.62" ry="2.68" transform="translate(272.07 386.76) rotate(-86.56)"/><ellipse cx="368.58" cy="50.97" rx="2.62" ry="2.68" transform="translate(295.55 415.82) rotate(-86.56)"/><path class="cls-3" d="M347.22,55.06c0,.07,0,.13,0,.2a8,8,0,1,0,15.9,1,1.33,1.33,0,0,0,0-.2,20.68,20.68,0,0,0-15.88-1Z"/><path class="cls-1" d="M42.47,13.79a30.52,30.52,0,0,1,19.26,7.42,1.38,1.38,0,0,1,.16,2.13L55.65,30a1.68,1.68,0,0,1-2.13.08,14.53,14.53,0,0,0-10.34-3.79,15.83,15.83,0,0,0,.08,31.65,18.62,18.62,0,0,0,7-1.26V52.07h-5a1.42,1.42,0,0,1-1.49-1.42V42.84a1.44,1.44,0,0,1,1.49-1.5H61.18a1.48,1.48,0,0,1,1.42,1.5l.08,21.23a1.94,1.94,0,0,1-.63,1.26,39.84,39.84,0,0,1-19.58,5.14,28.34,28.34,0,1,1,0-56.68Z"/><path class="cls-1" d="M69.86,39.68a1.5,1.5,0,0,1,1.5-1.5h3.71a1.44,1.44,0,0,1,1.42,1l1.42,3.47c1.58-2.29,4.5-5.21,8.6-5.21,4.34,0,7.42,1.58,6.32,3.4L89,47.1a1.35,1.35,0,0,1-1.74.71,5.58,5.58,0,0,0-1.89-.39,4.2,4.2,0,0,0-4.19,4.5V68.25c0,1-.47,1.5-1.73,1.5h-8a1.55,1.55,0,0,1-1.5-1.5Z"/><path class="cls-1" d="M110.74,37.39a16.58,16.58,0,1,1-16.42,16.5A16.63,16.63,0,0,1,110.74,37.39Zm0,23A6.35,6.35,0,0,0,117,53.89a6.24,6.24,0,1,0-12.47,0A6.35,6.35,0,0,0,110.74,60.36Z"/><path class="cls-1" d="M132.52,39.68a1.5,1.5,0,0,1,1.5-1.5h8.45a1.5,1.5,0,0,1,1.5,1.5V54.29c0,3.23,1.81,6.07,5.05,6.07,3.08,0,4.74-2.92,4.74-5.6V39.68c0-1.26.87-1.5,1.65-1.5h8.06a1.5,1.5,0,0,1,1.5,1.5V68.25a1.56,1.56,0,0,1-1.5,1.5h-3.71a1.72,1.72,0,0,1-1.5-1.1l-1.19-2.92c-2,2-4.58,4.81-10.65,4.81-9.4,0-13.9-7.57-13.9-16.57Z"/><path class="cls-1" d="M185.25,91.93a1.55,1.55,0,0,1-1.5,1.5H175a1.55,1.55,0,0,1-1.5-1.5V39.68a1.55,1.55,0,0,1,1.5-1.5h3.71c.79,0,1.34.71,1.65,1.58l1,2.61a13.65,13.65,0,0,1,10.58-5c8.92,0,15.63,7.5,15.63,16.58,0,11.13-7.26,16.57-15.71,16.57a15.8,15.8,0,0,1-6.55-1.5Zm5.05-31.57a6.25,6.25,0,0,0,6.39-6.31,6.34,6.34,0,0,0-6.39-6.48A6.27,6.27,0,0,0,184,54.05,6.18,6.18,0,0,0,190.3,60.36Z"/><path class="cls-1" d="M213.27,22.4a6.26,6.26,0,0,1,6.23-6.32,6.33,6.33,0,0,1,6.31,6.32,6.26,6.26,0,0,1-6.31,6.23A6.19,6.19,0,0,1,213.27,22.4Zm.47,17.28a1.5,1.5,0,0,1,1.5-1.5h8.68a1.5,1.5,0,0,1,1.5,1.5V68.25a1.55,1.55,0,0,1-1.5,1.5h-8.68a1.55,1.55,0,0,1-1.5-1.5Z"/><path class="cls-1" d="M235.6,48.21H234a1.5,1.5,0,0,1-1.5-1.5v-7a1.45,1.45,0,0,1,1.5-1.5h1.65V30.92c0-11,6.87-17.21,16-17.21,4.1,0,8.28,1.74,9.63,3a1.56,1.56,0,0,1,.31,1.82l-3.32,6.55a1.43,1.43,0,0,1-1.81.55,9.06,9.06,0,0,0-4.11-1.26c-3.31,0-4.65,2.68-4.65,6.55v7.26h7.26a1.45,1.45,0,0,1,1.5,1.5v7a1.5,1.5,0,0,1-1.5,1.5h-7.26v20a1.55,1.55,0,0,1-1.5,1.5H237.1a1.55,1.55,0,0,1-1.5-1.5Z"/><path class="cls-1" d="M258.25,40.23a1.39,1.39,0,0,1,1.34-2h9a1.52,1.52,0,0,1,1.34.87L276,53.73h.16l6.24-14.68a1.42,1.42,0,0,1,1.34-.87h8.92a1.37,1.37,0,0,1,1.34,2L269.86,92.49a1.58,1.58,0,0,1-1.34.94h-8.85a1.41,1.41,0,0,1-1.34-2.13L270.1,66.52Z"/><path class="cls-1" d="M291.3,69.48V64.21h-2v-.7h4.73v.7h-2v5.27Z"/><path class="cls-1" d="M294.86,69.48v-6h1.19l1.41,4.23c.13.39.22.68.28.88.07-.22.18-.54.32-1l1.43-4.15h1.06v6h-.76v-5l-1.73,5h-.72l-1.72-5.08v5.08Z"/></svg>