<svg id="Layer_1" data-name="Layer 1" xmlns="http://www.w3.org/2000/svg" viewBox="0 0 453.6 122.4"><defs><style>.cls-1{fill:#fff;}.cls-2,.cls-3,.cls-4{fill:#31a59f;}.cls-2{stroke:#fff;stroke-width:8px;}.cls-2,.cls-4{stroke-miterlimit:10;}.cls-4{stroke:#31a59f;stroke-width:2px;}</style></defs><path class="cls-1" d="M418.42,43.68l2.19,6.07-6,1.17c-1.57.31-2.39,1.59-1.81,2.86a3.67,3.67,0,0,0,3.92,1.75l8.56-1.67a2.64,2.64,0,0,0,1.46-.74,1.85,1.85,0,0,0,.52-2l-2.14-5.93,8.38-.55c1.64-.1,2.72-1.26,2.39-2.56h0a3.47,3.47,0,0,0-3.59-2.17l-11.19.73a2.84,2.84,0,0,0-2,.9A1.84,1.84,0,0,0,418.42,43.68Z"/><path class="cls-1" d="M434.55,71.54l3.62,6.4,5.54-1a3.81,3.81,0,0,1,3.85,2,2,2,0,0,1-1.43,3l-7.89,1.41a3.17,3.17,0,0,1-1.74-.19,3.91,3.91,0,0,1-2.16-1.71l-3.53-6.25L424,77.61a3.7,3.7,0,0,1-4-1.55h0c-.88-1.32-.51-2.79.82-3.26l9.05-3.19a3.2,3.2,0,0,1,2.27.14A3.87,3.87,0,0,1,434.55,71.54Z"/><path class="cls-1" d="M418.65,94.91l-6.27,1L409.9,90a3.35,3.35,0,0,0-3.52-2.2c-1.28.31-1.81,1.82-1.16,3.36l3.52,8.31a4.11,4.11,0,0,0,1.11,1.5,3,3,0,0,0,2.36.85l6.13-1,2.25,8a3.6,3.6,0,0,0,3.29,2.7h0c1.38-.08,2.14-1.42,1.7-3l-3-10.61a4,4,0,0,0-1.37-2A3.08,3.08,0,0,0,418.65,94.91Z"/><path class="cls-1" d="M354.92,43.54l-20.44-3.71a10.26,10.26,0,0,0-6.92,1.23,1,1,0,0,0-.38-.2l-4-.72c-1.73-.31-3.94,3.79-4.92,9.16s-.37,10,1.36,10.3l4,.71a1,1,0,0,0,.39-.05,10.25,10.25,0,0,0,6.1,3.65l2.12.39-2.74,15.09a6.45,6.45,0,0,0,12.7,2.31l2.74-15.1,4.93.9L387,94.43l13-61.28Z"/><ellipse class="cls-2" cx="391.76" cy="63.47" rx="30.25" ry="9.8" transform="translate(246.57 432.83) rotate(-77.74)"/><ellipse class="cls-3" cx="349.76" cy="51.78" rx="2.62" ry="2.68" transform="translate(277.06 397.8) rotate(-86.56)"/><ellipse class="cls-3" cx="376.94" cy="53.85" rx="2.62" ry="2.68" transform="translate(300.54 426.87) rotate(-86.56)"/><path class="cls-4" d="M355.58,57.93a1.36,1.36,0,0,0,0,.2,8,8,0,1,0,15.9,1,1.34,1.34,0,0,0,0-.2,20.76,20.76,0,0,0-7.57-2A21.07,21.07,0,0,0,355.58,57.93Z"/><path class="cls-1" d="M38.2,16.67a30.44,30.44,0,0,1,19.25,7.42,1.38,1.38,0,0,1,.16,2.13l-6.23,6.63a1.69,1.69,0,0,1-2.14.08A14.47,14.47,0,0,0,38.9,29.14,15.83,15.83,0,0,0,39,60.79a18.64,18.64,0,0,0,7-1.27V55H41a1.43,1.43,0,0,1-1.5-1.42V45.71a1.45,1.45,0,0,1,1.5-1.5H56.9a1.48,1.48,0,0,1,1.42,1.5L58.4,67a2,2,0,0,1-.63,1.26A39.88,39.88,0,0,1,38.2,73.34a28.34,28.34,0,1,1,0-56.67Z"/><path class="cls-1" d="M65.58,42.56a1.5,1.5,0,0,1,1.5-1.5h3.71a1.43,1.43,0,0,1,1.42.94l1.42,3.48c1.58-2.29,4.5-5.21,8.61-5.21,4.34,0,7.41,1.57,6.31,3.39L84.68,50a1.34,1.34,0,0,1-1.74.7,5.84,5.84,0,0,0-1.89-.39,4.19,4.19,0,0,0-4.18,4.5V71.13c0,1-.48,1.5-1.74,1.5h-8a1.55,1.55,0,0,1-1.5-1.5Z"/><path class="cls-1" d="M106.47,40.27A16.58,16.58,0,1,1,90.05,56.76,16.61,16.61,0,0,1,106.47,40.27Zm0,23a6.36,6.36,0,0,0,6.23-6.48,6.24,6.24,0,1,0-12.47,0A6.36,6.36,0,0,0,106.47,63.24Z"/><path class="cls-1" d="M128.25,42.56a1.5,1.5,0,0,1,1.5-1.5h8.44a1.5,1.5,0,0,1,1.5,1.5v14.6c0,3.23,1.82,6.08,5.06,6.08,3.07,0,4.73-2.93,4.73-5.61V42.56c0-1.27.87-1.5,1.66-1.5h8.05a1.5,1.5,0,0,1,1.5,1.5V71.13a1.55,1.55,0,0,1-1.5,1.5h-3.71a1.73,1.73,0,0,1-1.5-1.11l-1.19-2.92c-2,2-4.57,4.82-10.65,4.82-9.39,0-13.89-7.58-13.89-16.58Z"/><path class="cls-1" d="M181,94.81a1.55,1.55,0,0,1-1.5,1.5h-8.76a1.55,1.55,0,0,1-1.5-1.5V42.56a1.55,1.55,0,0,1,1.5-1.5h3.71c.79,0,1.34.71,1.66,1.57l.95,2.61a13.63,13.63,0,0,1,10.57-5c8.92,0,15.63,7.49,15.63,16.57,0,11.13-7.26,16.58-15.71,16.58a16,16,0,0,1-6.55-1.5ZM186,63.24a6.26,6.26,0,0,0,6.4-6.32,6.34,6.34,0,0,0-6.4-6.47,6.27,6.27,0,0,0-6.31,6.47A6.19,6.19,0,0,0,186,63.24Z"/><path class="cls-1" d="M209,25.27A6.26,6.26,0,0,1,215.22,19a6.33,6.33,0,0,1,6.32,6.31,6.26,6.26,0,0,1-6.32,6.23A6.19,6.19,0,0,1,209,25.27Zm.47,17.29a1.5,1.5,0,0,1,1.5-1.5h8.68a1.49,1.49,0,0,1,1.5,1.5V71.13a1.54,1.54,0,0,1-1.5,1.5H211a1.55,1.55,0,0,1-1.5-1.5Z"/><path class="cls-1" d="M231.33,51.08h-1.66a1.5,1.5,0,0,1-1.5-1.5v-7a1.45,1.45,0,0,1,1.5-1.5h1.66V33.79c0-11,6.86-17.2,16-17.2,4.1,0,8.29,1.73,9.63,3a1.55,1.55,0,0,1,.31,1.81L254,28a1.45,1.45,0,0,1-1.82.56,8.86,8.86,0,0,0-4.1-1.27c-3.32,0-4.66,2.69-4.66,6.55v7.27h7.26a1.45,1.45,0,0,1,1.5,1.5v7a1.5,1.5,0,0,1-1.5,1.5H243.4v20a1.55,1.55,0,0,1-1.5,1.5h-9.07a1.55,1.55,0,0,1-1.5-1.5Z"/><path class="cls-1" d="M254,43.11a1.39,1.39,0,0,1,1.34-2h9a1.51,1.51,0,0,1,1.34.86l6.08,14.68h.16l6.23-14.68a1.42,1.42,0,0,1,1.34-.86h8.92a1.37,1.37,0,0,1,1.34,2L265.58,95.36a1.59,1.59,0,0,1-1.34,1H255.4a1.41,1.41,0,0,1-1.34-2.13l11.76-24.79Z"/><path class="cls-1" d="M291.83,73V62.46h-3.94V61.05h9.47v1.41h-3.95V73Z"/><path class="cls-1" d="M298.93,73V61.05h2.38l2.83,8.45q.39,1.19.57,1.77c.13-.44.34-1.07.63-1.92l2.86-8.3h2.13V73H308.8V63l-3.47,10h-1.42l-3.46-10.17V73Z"/></svg>